<svg xmlns="http://www.w3.org/2000/svg" viewBox="0 0 100 100" fill="none">
  <!-- PLACEHOLDER — remplacez ce fichier par l'emblème pour fond CLAIR (foncé) -->
  <circle cx="50" cy="50" r="47" stroke="#C8A34D" stroke-width="1.6"/>
  <circle cx="50" cy="50" r="42.5" stroke="#0B3C5D" stroke-width="0.7" opacity="0.35"/>
  <circle cx="50" cy="29" r="5" stroke="#0B3C5D" stroke-width="1.3"/>
  <g stroke="#0B3C5D" stroke-width="0.9">
    <line x1="57.5" y1="29" x2="60.5" y2="29"/>
    <line x1="55.3" y1="34.3" x2="57.42" y2="36.42"/>
    <line x1="50" y1="36.5" x2="50" y2="39.5"/>
    <line x1="44.7" y1="34.3" x2="42.58" y2="36.42"/>
    <line x1="42.5" y1="29" x2="39.5" y2="29"/>
    <line x1="44.7" y1="23.7" x2="42.58" y2="21.58"/>
    <line x1="50" y1="21.5" x2="50" y2="18.5"/>
    <line x1="55.3" y1="23.7" x2="57.42" y2="21.58"/>
  </g>
  <g stroke="#0B3C5D" stroke-width="1.2" stroke-linejoin="round">
    <rect x="31" y="51" width="8" height="15"/>
    <rect x="46" y="45" width="8" height="21"/>
    <rect x="59" y="51" width="8" height="15"/>
    <rect x="27" y="66" width="46" height="7"/>
  </g>
  <g stroke="#0B3C5D" stroke-width="1.1">
    <line x1="35" y1="51" x2="35" y2="47"/>
    <line x1="50" y1="45" x2="50" y2="40"/>
    <line x1="63" y1="51" x2="63" y2="47"/>
  </g>
  <g fill="#0B3C5D">
    <circle cx="35" cy="46" r="1.2"/>
    <circle cx="50" cy="39" r="1.3"/>
    <circle cx="63" cy="46" r="1.2"/>
  </g>
</svg>
